<?xml version="1.0" encoding="utf-8"?>
<!-- Generator: Adobe Illustrator 24.3.0, SVG Export Plug-In . SVG Version: 6.00 Build 0)  -->
<svg version="1.1" id="Layer_1" xmlns="http://www.w3.org/2000/svg" xmlns:xlink="http://www.w3.org/1999/xlink" x="0px" y="0px"
	 viewBox="0 0 48 48" style="enable-background:new 0 0 48 48;" xml:space="preserve">
<style type="text/css">
	.st0{fill:#FFFFFF;}
</style>
<rect x="-2801.7" y="1977" width="432.7" height="79.5"/>
<polygon class="st0" points="-2869,1987.4 -2869,2001.3 -2824.3,2001.3 -2824.3,2009.8 -2869,2009.8 -2869,2046 -2810.4,2046 
	-2810.4,2032.1 -2855.1,2032.1 -2855.1,2023.7 -2810.4,2023.7 -2810.4,1987.4 "/>
<g>
	<path class="st0" d="M-2742.7,2011.8c0,1.2-0.2,2.2-0.6,3.1c1.4,1.5,2.4,3.6,2.4,5.9v9.6c0,4.8-3.8,8.6-8.5,8.6h-35.1v-44.4h33.4
		c4.6,0,8.4,3.8,8.4,8.6V2011.8z M-2776.1,2002.6c-0.2,0-0.4,0.2-0.4,0.4v8.7c0,0.2,0.2,0.4,0.4,0.4h25c0.2,0,0.4-0.2,0.4-0.4v-8.7
		c0-0.2-0.2-0.4-0.4-0.4H-2776.1z M-2749,2020.8c0-0.2-0.2-0.4-0.4-0.4h-26.7c-0.2,0-0.4,0.1-0.4,0.4v9.6c0,0.2,0.2,0.4,0.4,0.4
		h26.7c0.2,0,0.4-0.2,0.4-0.4V2020.8z"/>
	<path class="st0" d="M-2690.7,1994.5l-20.1,27.8v16.6h-8v-16.6c-6.4-8.8-13.9-19-20.1-27.8h9.5l14.6,18.9l14.6-18.9H-2690.7z"/>
	<polygon class="st0" points="-2646.4,1994.5 -2646.4,2002.6 -2664.2,2002.6 -2664.2,2038.9 -2672.2,2038.9 -2672.2,2002.6 
		-2690,2002.6 -2690,1994.5 	"/>
	<polygon class="st0" points="-2601.7,2002.6 -2633.7,2002.6 -2633.7,2012.6 -2608,2012.6 -2608,2020.8 -2633.7,2020.8 
		-2633.7,2030.8 -2601.7,2030.8 -2601.7,2038.9 -2641.8,2038.9 -2641.8,1994.5 -2601.7,1994.5 	"/>
	<path class="st0" d="M-2530,1994.5l-15.8,44.4h-6.3l-11.3-31.5c-3.7,10.4-7.7,21.2-11.3,31.5h-6.2l-15.8-44.4h8.5l10.5,29.3
		l10.5-29.3h7.8l10.5,29.3l10.5-29.3H-2530z"/>
	<path class="st0" d="M-2491.6,1994.5c4.7,0,8.5,3.8,8.5,8.6v35.9h-8V2024h-27.5v14.9h-8v-35.9c0-4.8,3.7-8.6,8.4-8.6H-2491.6z
		 M-2491.2,2015.8v-12.8c0-0.2-0.2-0.4-0.4-0.4h-26.7c-0.2,0-0.4,0.2-0.4,0.4v12.8H-2491.2z"/>
	<path class="st0" d="M-2432.8,2015.1c0,4.7-3.8,8.6-8.5,8.6h-2.4l10.8,13.1v2.1h-8.7l-12.6-15.2h-14.1h-0.2v15.2h-8v-44.4h35.1
		c4.7,0,8.5,3.9,8.5,8.6V2015.1z M-2441.3,2015.5c0.2,0,0.4-0.2,0.4-0.4v-12c0-0.2-0.2-0.4-0.4-0.4h-26.7c-0.2,0-0.4,0.2-0.4,0.4v12
		c0,0.2,0.2,0.4,0.4,0.4H-2441.3z"/>
	<polygon class="st0" points="-2386.2,2002.6 -2418.2,2002.6 -2418.2,2012.6 -2392.4,2012.6 -2392.4,2020.8 -2418.2,2020.8 
		-2418.2,2030.8 -2386.2,2030.8 -2386.2,2038.9 -2426.2,2038.9 -2426.2,1994.5 -2386.2,1994.5 	"/>
</g>
</svg>
