<svg xmlns="http://www.w3.org/2000/svg" viewBox="0 0 48 34.4"><g id="b8656ddf-5bea-4d96-9641-81e3439552a1" data-name="Layer 2"><g id="bb07d24e-4ec9-4491-8479-d6c0300e92d0" data-name="Layer 1"><path d="M44.9,2A1.1,1.1,0,0,1,46,3.1V31.4a1,1,0,0,1-1.1,1H3.1a1,1,0,0,1-1.1-1V3.1A1.1,1.1,0,0,1,3.1,2H44.9m0-2H3.1A3.1,3.1,0,0,0,0,3.1V31.4a3,3,0,0,0,3.1,3H44.9a3,3,0,0,0,3.1-3V3.1A3.1,3.1,0,0,0,44.9,0Z" fill="#333"/><rect x="6.9" y="5.1" width="34.2" height="2.56" fill="#333"/><rect x="6.9" y="26.8" width="34.2" height="2.56" fill="#333"/><path d="M8.4,16.7h4.7c.1,0,.2.1.2.3v.7a.2.2,0,0,1-.2.2H8.4v3c0,.2-.1.3-.2.3h-1c-.1,0-.2-.1-.2-.3V13.5l.2-.2h6.7c.2,0,.3.1.3.2v.7c0,.2-.1.2-.3.2H8.4Z" fill="#333"/><path d="M23.1,15v1.5a1.6,1.6,0,0,1-1.8,1.8h-.5l2.6,2.6a.2.2,0,0,1-.1.3H22.1a.5.5,0,0,1-.4-.2l-2.5-2.6H16.8v2.5a.3.3,0,0,1-.3.3h-.9c-.2,0-.2-.1-.2-.3V13.5c0-.1,0-.2.2-.2h5.7C22.5,13.3,23.1,13.8,23.1,15Zm-6.3,2.2h3.8c.9,0,1.1-.2,1.1-.9v-.9c0-.8-.2-1-1.1-1H16.8Z" fill="#333"/><path d="M31.8,13.3c.2,0,.3.1.3.2v.7c0,.2-.1.2-.3.2H26v2.2h4.9c.2,0,.3.1.3.2v.7a.3.3,0,0,1-.3.3H26V20h5.8c.2,0,.3.1.3.2v.7a.3.3,0,0,1-.3.3H24.9a.3.3,0,0,1-.3-.3V13.5c0-.1.1-.2.3-.2Z" fill="#333"/><path d="M40.8,13.3l.2.2v.7c0,.2-.1.2-.2.2H35v2.2h4.9a.2.2,0,0,1,.2.2v.7c0,.2-.1.3-.2.3H35V20h5.8a.2.2,0,0,1,.2.2v.7c0,.2-.1.3-.2.3h-7c-.2,0-.2-.1-.2-.3V13.5c0-.1,0-.2.2-.2Z" fill="#333"/></g></g></svg>