<svg xmlns="http://www.w3.org/2000/svg" viewBox="0 0 48 34.4"><g id="be6c40a4-3322-429d-8c70-bfe6b4614e3e" data-name="Layer 2"><g id="bf4249ff-54be-4a4f-9951-5834580f639b" data-name="Layer 1"><path d="M44.9,2A1.1,1.1,0,0,1,46,3.1V31.4a1,1,0,0,1-1.1,1H3.1a1,1,0,0,1-1.1-1V3.1A1.1,1.1,0,0,1,3.1,2H44.9m0-2H3.1A3.1,3.1,0,0,0,0,3.1V31.4a3,3,0,0,0,3.1,3H44.9a3,3,0,0,0,3.1-3V3.1A3.1,3.1,0,0,0,44.9,0Z" fill="#333"/><path d="M23.2,21.6a.3.3,0,0,1-.3.3h-9c-.1,0-.2-.1-.2-.3V19a1.9,1.9,0,0,1,2.2-2.2h4.5c1,0,1.2-.2,1.2-1v-1c0-.7-.2-.9-1.2-.9H16.2c-.6,0-.8.2-.8.7v.6c0,.1-.1.2-.3.2h-1c-.2,0-.2-.1-.2-.2v-.6c0-1.5.5-2,2.1-2h5c1.5,0,2.2.6,2.2,2v1.5c0,1.4-.7,2-2.2,2H16.4c-.9,0-1.2.3-1.2,1v1.5h7.7a.3.3,0,0,1,.3.3Z" fill="#333"/><path d="M31.4,12.6a2.6,2.6,0,0,1,2.9,2.8v3.7a2.7,2.7,0,0,1-2.9,2.8h-6a.3.3,0,0,1-.3-.3V12.8c0-.2.1-.2.3-.2Zm-4.6,7.9h3.8c1.5,0,2.1-.5,2.1-1.7V15.6c0-1.2-.6-1.7-2.1-1.7H26.8Z" fill="#333"/><rect x="6.9" y="5.1" width="34.2" height="2.56" fill="#333"/><rect x="6.9" y="26.8" width="34.2" height="2.56" fill="#333"/></g></g></svg>