<svg xmlns="http://www.w3.org/2000/svg" viewBox="0 0 48 34.4"><g id="ad1229b8-ad78-42ef-9ba9-9178f1567b08" data-name="Layer 2"><g id="ecf9307d-522f-4d2b-b0c6-0fa14dc9d96e" data-name="Layer 1"><path d="M44.9,2A1.1,1.1,0,0,1,46,3.1V31.4a1,1,0,0,1-1.1,1H3.1a1,1,0,0,1-1.1-1V3.1A1.1,1.1,0,0,1,3.1,2H44.9m0-2H3.1A3.1,3.1,0,0,0,0,3.1V31.4a3,3,0,0,0,3.1,3H44.9a3,3,0,0,0,3.1-3V3.1A3.1,3.1,0,0,0,44.9,0Z" fill="#333"/><rect x="6.9" y="5.1" width="34.2" height="2.56" fill="#333"/><rect x="6.9" y="26.8" width="34.2" height="2.56" fill="#333"/><path d="M12.8,16.7h4.5a.3.3,0,0,1,.3.3v.7c0,.1-.1.2-.3.2H12.8V21c0,.1,0,.2-.2.2h-.9a.2.2,0,0,1-.2-.2V13.5c0-.2.1-.3.2-.3h6.5c.2,0,.2.1.2.3v.7c0,.1,0,.2-.2.2H12.8Z" fill="#333"/><path d="M20.9,19.1c0,.7.2.9,1.1.9h2.6c.9,0,1-.2,1-.9V13.5a.3.3,0,0,1,.3-.3h.9c.1,0,.2.1.2.3v5.9a1.6,1.6,0,0,1-1.8,1.8H21.3a1.6,1.6,0,0,1-1.8-1.8V13.5c0-.2.1-.3.2-.3h.9a.3.3,0,0,1,.3.3Z" fill="#333"/><path d="M34.7,21.2c-.2,0-.3,0-.4-.2L30,14.4V21c0,.1-.1.2-.3.2h-.8a.2.2,0,0,1-.2-.2V13.5c0-.2.1-.3.2-.3h1.6c.2,0,.3.1.3.2L35.2,20V13.5a.3.3,0,0,1,.3-.3h.8c.1,0,.2.1.2.3V21a.2.2,0,0,1-.2.2Z" fill="#333"/></g></g></svg>